<?xml version="1.0" encoding="utf-8"?>
<!-- Generator: Adobe Illustrator 19.1.0, SVG Export Plug-In . SVG Version: 6.00 Build 0)  -->
<svg version="1.1" id="レイヤー_1" xmlns="http://www.w3.org/2000/svg" xmlns:xlink="http://www.w3.org/1999/xlink" x="0px"
	 y="0px" width="1157.7px" height="521.7px" viewBox="0 0 1157.7 521.7" enable-background="new 0 0 1157.7 521.7"
	 xml:space="preserve">
<g>
	<linearGradient id="SVGID_1_" gradientUnits="userSpaceOnUse" x1="33.7083" y1="188.125" x2="1157.7239" y2="188.125">
		<stop  offset="0" style="stop-color:#FFFFFF"/>
		<stop  offset="0.2264" style="stop-color:#FCFEFF"/>
		<stop  offset="0.3626" style="stop-color:#F4FCFE"/>
		<stop  offset="0.475" style="stop-color:#E6F7FD"/>
		<stop  offset="0.5744" style="stop-color:#D1F1FB"/>
		<stop  offset="0.6652" style="stop-color:#B7E8F9"/>
		<stop  offset="0.7498" style="stop-color:#97DEF7"/>
		<stop  offset="0.8297" style="stop-color:#70D2F4"/>
		<stop  offset="0.9057" style="stop-color:#44C3F0"/>
		<stop  offset="0.9761" style="stop-color:#12B4EC"/>
		<stop  offset="1" style="stop-color:#00AEEB"/>
	</linearGradient>
	<polygon fill="url(#SVGID_1_)" points="1092.6,376.2 33.7,376.2 50.3,288.7 1157.7,0 	"/>
	<path fill="#00395D" d="M291.6,521.7h-269c-6.9,0-13.4-2.9-17.6-8c-4.1-4.9-5.8-11.3-4.6-17.8l54-289.9
		c2.4-13.2,13.8-23.1,26.6-23.1h145.4c2.2,0,4.3,1,5.8,2.7c1.4,1.7,2,3.9,1.6,6.1l-38.5,215.3c-0.5,2.7,0.5,4.5,1.3,5.6
		c1.4,1.7,3.6,2.6,6.1,2.6h123.7c2.3,0,4.4,1,5.8,2.8c1.4,1.8,2,4,1.5,6.3l-15.5,74.4C315.8,511.7,304.4,521.7,291.6,521.7z
		 M80.9,197.8c-5.5,0-10.7,4.8-11.8,10.8l-54,289.9c-0.5,2.6,0.5,4.5,1.4,5.5c1.4,1.7,3.6,2.6,6.1,2.6h269c5.5,0,10.7-4.8,11.8-10.8
		c0-0.1,0-0.1,0-0.2l13.6-65.5H202.6c-6.9,0-13.4-2.9-17.6-8c-4.1-4.9-5.8-11.3-4.6-17.8l36.9-206.5H80.9z"/>
	<path fill="#00395D" d="M195,372.6c-0.4,0-0.9,0-1.3-0.1c-4.1-0.7-6.8-4.6-6.1-8.7l35.4-198.3c2.3-12.8,15-23.2,28.3-23.2h98.2
		c4.1,0,7.5,3.4,7.5,7.5c0,4.1-3.4,7.5-7.5,7.5h-98.2c-6,0-12.5,5.3-13.5,10.8l-35.4,198.3C201.7,370.1,198.6,372.6,195,372.6z"/>
	<g>
		<polygon fill="#00395D" points="77.8,377.2 63.1,377.2 97.2,191.9 112,194.6 		"/>
		<polygon fill="#00395D" points="118.2,377.2 103.4,377.2 137.6,191.9 152.3,194.6 		"/>
		<polygon fill="#00395D" points="158.6,377.2 143.8,377.2 178,191.9 192.7,194.6 		"/>
	</g>
	<g>
		<path fill="#00AEEB" d="M385.8,141.2h96.9l-5.1,28.9h-19.4l2.5-14.4h-58.1l-5.1,29h77.5l-10.1,57.7H368l5.1-28.9h19.4l-2.5,14.4
			h58.1l5.1-28.9h-77.5L385.8,141.2z"/>
		<path fill="#00AEEB" d="M499.5,170.1h96.9l-12.7,72.3h-96.9L499.5,170.1z M566.9,227.9l7.6-43.3h-58.1l-7.6,43.3H566.9z"/>
		<path fill="#00395D" d="M617.1,170.1H714l-5.1,29h-19.4l2.5-14.4H634l-7.6,43.3h58.1l2.5-14.4h19.4l-5.1,28.9h-96.9L617.1,170.1z"
			/>
		<path fill="#00395D" d="M722.1,242.4l12.7-72.3h19.4l-12.7,72.3H722.1z M739.8,141.2h19.4l-2.5,14.4h-19.4L739.8,141.2z"/>
		<path fill="#00395D" d="M791.8,170.1h77.5l-12.7,72.3h-96.9l7.6-43.3h77.5l2.5-14.4h-58.1L791.8,170.1z M839.7,227.9l2.5-14.4
			h-58.1l-2.5,14.4H839.7z"/>
		<path fill="#00395D" d="M896.6,227.9H916l-2.5,14.4h-38.8l17.7-101.2h19.4L896.6,227.9z"/>
		<path fill="#00395D" d="M365,377.4l12.7-72.3h19.4l-12.7,72.3H365z M382.8,276.2h19.4l-2.5,14.4h-19.4L382.8,276.2z"/>
		<path fill="#00395D" d="M514.9,319.6h-77.5l-2.5,14.4h77.5l-7.6,43.3h-96.9l2.5-14.4h77.5l2.5-14.4H413l7.6-43.4h96.9L514.9,319.6
			z"/>
		<path fill="#00395D" d="M566.6,319.6l-7.6,43.3h38.7l-2.5,14.4H537l10.1-57.7h-19.4l2.6-14.6h19.4l5.1-28.9h19.4l-5.1,28.9h38.7
			l-2.6,14.6H566.6z"/>
		<path fill="#00395D" d="M623.4,305.1h96.9l-7.6,43.4h-77.5l-2.5,14.4h77.5l-2.5,14.4h-96.9L623.4,305.1z M695.8,334.1l2.5-14.4
			h-58.1l-2.5,14.4H695.8z"/>
		<path fill="#00395D" d="M735.7,305.1h77.5l-2.6,14.6h-58.1l-10.1,57.7H723L735.7,305.1z M810.6,319.6H830l-10.1,57.7h-19.4
			L810.6,319.6z"/>
		<path fill="#00395D" d="M840.6,377.4l12.7-72.3h19.4L860,377.4H840.6z M858.4,276.2h19.4l-2.5,14.4h-19.4L858.4,276.2z"/>
		<path fill="#00395D" d="M893.6,305.1H971l-2.6,14.6h-58.1l-10.1,57.7h-19.4L893.6,305.1z M968.5,319.6h19.4l-10.1,57.7h-19.4
			L968.5,319.6z"/>
		<path fill="#00395D" d="M1008.5,305.1h96.9l-17.7,101.2h-77.5l2.5-14.4h58.1l2.5-14.4h-77.5L1008.5,305.1z M1075.9,362.9l7.6-43.3
			h-58.1l-7.6,43.3H1075.9z"/>
		<path fill="#00AEEB" d="M355.7,418h96.9l-2.5,14.4h-38.8L396,519.2h-19.4l15.2-86.7h-38.7L355.7,418z"/>
		<path fill="#00395D" d="M453.6,446.9h96.9l-7.6,43.4h-77.5l-2.5,14.4h77.5l-2.5,14.4h-96.9L453.6,446.9z M526,475.9l2.5-14.4
			h-58.1l-2.5,14.4H526z"/>
		<path fill="#00395D" d="M585.3,446.9h77.5l-12.7,72.3h-96.9l7.6-43.3h77.5l2.5-14.4h-58.1L585.3,446.9z M633.3,504.7l2.5-14.4
			h-58.1l-2.5,14.4H633.3z"/>
		<path fill="#00395D" d="M680.9,446.9h77.5l-2.6,14.6h-19.4l-10.1,57.7H707l10.1-57.7h-19.4l-10.1,57.7h-19.4L680.9,446.9z
			 M755.8,461.4h19.4l-10.1,57.7h-19.4L755.8,461.4z"/>
	</g>
	<g>
		<path fill="#00AEEB" d="M262.6,360.6h77.5l-2.8,16.7h-96.9l30.9-161.5h19.4L262.6,360.6z"/>
	</g>
</g>
</svg>
